<?xml version="1.0" encoding="UTF-8"?><svg id="b" xmlns="http://www.w3.org/2000/svg" width="490.5" height="409.85" viewBox="0 0 490.5 409.85"><defs><style>.d{fill:#8d7be4;}</style></defs><g id="c"><path class="d" d="m148.16,332.15c-19.39,0-37.61-7.11-51.3-20.03-14.17-13.38-21.98-33.39-21.98-53.19v-.49c.77-20.55,7.13-38.18,18.38-50.96,11.38-12.91,27.22-18.28,44.6-18.28h99.64c31.19,0,57.16,22.79,62.12,52.59.91,5.44-3.26,10.4-8.77,10.4h-8.6c-4.27,0-7.9-3.05-8.74-7.24-3.36-16.8-18.24-29.5-36.01-29.5h-99.64c-21.22,0-35.62,16.09-36.73,43.71.07,12.41,4.94,23.8,13.75,32.11,8.8,8.31,20.62,14.63,33.28,14.63h56.69v-7.44c0-6.28,6.49-10.3,12.03-7.78.26.12.51.25.76.39l37.04,21.39c5.69,3.28,5.69,11.49,0,14.77l-35.19,20.32s-2.35,1.34-2.61,1.46c-5.54,2.53-12.03-1.5-12.03-7.77v-9.09h-56.69Zm101.4-44.86c-31.19,0-57.16-22.79-62.12-52.59-.91-5.43,3.26-10.39,8.77-10.39h8.6c4.27,0,7.9,3.05,8.74,7.24,3.36,16.8,18.24,29.49,36.01,29.49h99.64c21.22,0,35.62-16.08,36.73-43.71-.07-12.4-4.94-23.8-13.75-32.11-8.8-8.3-20.62-14.63-33.28-14.63h-56.69v7.45c0,3.61-2.15,6.47-5.03,7.77-2.36,1.07-5.2,1.09-7.76-.39l-37.04-21.39c-5.69-3.28-5.69-11.48,0-14.76l37.04-21.4c2.56-1.48,5.4-1.46,7.76-.39,2.88,1.3,5.03,4.17,5.03,7.78v9.08h56.69c19.39,0,37.61,7.12,51.3,20.04,14.17,13.37,21.98,33.39,21.98,53.19v.48c-.77,20.56-7.13,38.18-18.38,50.96-11.38,12.92-27.22,18.28-44.6,18.28h-99.64Z"/><path class="d" d="m449.71,40.61H192.05c-.7,0-1.38-.13-2.01-.38-.66-.26-1.25-.63-1.75-1.09-5.11-4.79-9.71-10.08-13.67-15.71C160.15,2.85,155.49,0,136.24,0H40.79C18.3,0,0,18.92,0,42.17v325.51c0,21.15,15.31,39.14,35.68,41.84.5.07,1.01.12,1.51.17.47.04.95.08,1.43.1.72.05,1.44.06,2.17.06h408.92c.72,0,1.44-.01,2.17-.06.45-.02.89-.05,1.42-.1.5-.04.98-.1,1.49-.16l.16-.02c20.26-2.7,35.55-20.68,35.55-41.83V82.78c0-23.25-18.3-42.17-40.79-42.17ZM40.79,22h95.45c5.82,0,8.31.07,9.48.77,2.47,1.49,6.92,7.65,10.9,13.31,4.83,6.87,10.42,13.3,16.64,19.12,2.53,2.37,5.45,4.21,8.71,5.5,3.22,1.27,6.62,1.91,10.08,1.91h257.66c10.36,0,18.79,9.05,18.79,20.17v284.9c0,10.17-7.07,18.77-16.47,20.02-.27.03-.54.07-.73.08-.21.02-.41.03-.7.05-.3.02-.6.02-.89.02H40.79c-.3,0-.6,0-.9-.02h-.15c-.08-.01-.16-.01-.23-.02l-.5-.05c-.19,0-.37-.04-.57-.06-9.38-1.25-16.44-9.85-16.44-20.02V42.17c0-11.12,8.43-20.17,18.79-20.17Z"/></g></svg>